<svg xmlns="http://www.w3.org/2000/svg" xmlns:xlink="http://www.w3.org/1999/xlink" width="1920" height="4661" viewBox="0 0 1920 4661">
  <defs>
    <clipPath id="clip-Web_1920_2">
      <rect width="1920" height="4661"/>
    </clipPath>
  </defs>
  <g id="Web_1920_2" data-name="Web 1920 – 2" clip-path="url(#clip-Web_1920_2)">
    <rect width="1920" height="4661" fill="#fff"/>
    <rect id="Rectangle_2" data-name="Rectangle 2" width="1920" height="1080" transform="translate(0 2762)" fill="#fff"/>
    <path id="Path_1" data-name="Path 1" d="M1824-23Z" transform="translate(96 23)" fill="none" stroke="#707070" stroke-width="1"/>
    <line id="Line_9" data-name="Line 9" x2="348" transform="translate(272.5 3929.5)" fill="none" stroke="#fff" stroke-linecap="round" stroke-width="10"/>
    <line id="Line_12" data-name="Line 12" x2="363" y2="1" transform="translate(785.5 4394.5)" fill="none" stroke="#fff" stroke-linecap="round" stroke-width="10"/>
    <line id="Line_8" data-name="Line 8" x2="348" transform="translate(149.5 3950.5)" fill="none" stroke="#fff" stroke-linecap="round" stroke-width="10"/>
    <line id="Line_13" data-name="Line 13" y1="2" x2="315" transform="translate(710.5 4416.5)" fill="none" stroke="#fff" stroke-linecap="round" stroke-width="10"/>
    <line id="Line_10" data-name="Line 10" x2="348" transform="translate(112.5 3907.5)" fill="none" stroke="#fff" stroke-linecap="round" stroke-width="10"/>
    <line id="Line_11" data-name="Line 11" x2="231" transform="translate(757.5 4373.5)" fill="none" stroke="#fff" stroke-linecap="round" stroke-width="10"/>
    <path id="Path_24" data-name="Path 24" d="M37.334,1841.451c50.272-465.376,605.848-771.472,570.833-412.4s899.68,297.359,794.626,779.947c-60.721,278.934-333.334,483.309-568.225,494.619-172.327,8.3-324.321-86.331-359.5-329.978C391.714,1796.278-12.938,2306.831,37.334,1841.451Z" transform="translate(238 -967)" fill="#037cff" stroke="#707070" stroke-width="1" opacity="0.06"/>
    <path id="Path_25" data-name="Path 25" d="M1613.072,1897.324c-57.824-511.019-696.853-847.137-656.579-452.852S-78.329,1771,42.506,2300.916s971.2,814.773,1067.077,180.789S1670.9,2408.348,1613.072,1897.324Z" transform="translate(102.973 950.223)" fill="#037cff" stroke="#707070" stroke-width="1" opacity="0.06"/>
  </g>
</svg>
